<svg width="295" height="138" viewBox="0 0 295 138" fill="none" xmlns="http://www.w3.org/2000/svg">
<path d="M0 20C0 8.95431 8.95431 0 20 0H275C286.046 0 295 8.9543 295 20V118C295 129.046 286.046 138 275 138H20C8.9543 138 0 129.046 0 118V20Z" fill="#FC4C02"/>
<path d="M23.2514 20.4545H25.4389V30.767C25.4389 31.6998 25.2543 32.4976 24.8849 33.1605C24.5204 33.8234 24.0066 34.33 23.3438 34.6804C22.6809 35.026 21.9044 35.1989 21.0142 35.1989C20.1951 35.1989 19.4588 35.0497 18.8054 34.7514C18.1567 34.4531 17.643 34.0199 17.2642 33.4517C16.8902 32.8788 16.7031 32.1828 16.7031 31.3636H18.8835C18.8835 31.7661 18.9759 32.1141 19.1605 32.4077C19.3499 32.7012 19.608 32.9309 19.9347 33.0966C20.2661 33.2576 20.6449 33.3381 21.071 33.3381C21.535 33.3381 21.928 33.241 22.25 33.0469C22.5767 32.848 22.8253 32.5568 22.9957 32.1733C23.1662 31.7898 23.2514 31.321 23.2514 30.767V20.4545ZM33.0579 35.2202C32.0352 35.2202 31.1426 34.9858 30.3803 34.517C29.618 34.0483 29.0262 33.3925 28.6048 32.5497C28.1834 31.7069 27.9727 30.7221 27.9727 29.5952C27.9727 28.4635 28.1834 27.474 28.6048 26.6264C29.0262 25.7789 29.618 25.1207 30.3803 24.652C31.1426 24.1832 32.0352 23.9489 33.0579 23.9489C34.0806 23.9489 34.9731 24.1832 35.7354 24.652C36.4978 25.1207 37.0896 25.7789 37.511 26.6264C37.9324 27.474 38.1431 28.4635 38.1431 29.5952C38.1431 30.7221 37.9324 31.7069 37.511 32.5497C37.0896 33.3925 36.4978 34.0483 35.7354 34.517C34.9731 34.9858 34.0806 35.2202 33.0579 35.2202ZM33.065 33.4375C33.7279 33.4375 34.2771 33.2623 34.7127 32.9119C35.1483 32.5616 35.4703 32.0952 35.6786 31.5128C35.8917 30.9304 35.9982 30.2888 35.9982 29.5881C35.9982 28.892 35.8917 28.2528 35.6786 27.6705C35.4703 27.0833 35.1483 26.6122 34.7127 26.2571C34.2771 25.902 33.7279 25.7244 33.065 25.7244C32.3974 25.7244 31.8434 25.902 31.4031 26.2571C30.9674 26.6122 30.6431 27.0833 30.43 27.6705C30.2217 28.2528 30.1175 28.892 30.1175 29.5881C30.1175 30.2888 30.2217 30.9304 30.43 31.5128C30.6431 32.0952 30.9674 32.5616 31.4031 32.9119C31.8434 33.2623 32.3974 33.4375 33.065 33.4375ZM40.5135 35V24.0909H42.6371V35H40.5135ZM41.5859 22.4077C41.2166 22.4077 40.8994 22.2846 40.6342 22.0384C40.3738 21.7874 40.2436 21.4891 40.2436 21.1435C40.2436 20.7931 40.3738 20.4948 40.6342 20.2486C40.8994 19.9976 41.2166 19.8722 41.5859 19.8722C41.9553 19.8722 42.2701 19.9976 42.5305 20.2486C42.7957 20.4948 42.9283 20.7931 42.9283 21.1435C42.9283 21.4891 42.7957 21.7874 42.5305 22.0384C42.2701 22.2846 41.9553 22.4077 41.5859 22.4077ZM47.6175 28.5227V35H45.494V24.0909H47.5323V25.8665H47.6673C47.9182 25.2888 48.3112 24.8248 48.8462 24.4744C49.386 24.1241 50.0655 23.9489 50.8846 23.9489C51.628 23.9489 52.279 24.1051 52.8377 24.4176C53.3964 24.7254 53.8297 25.1847 54.1374 25.7955C54.4452 26.4062 54.5991 27.1615 54.5991 28.0611V35H52.4755V28.3168C52.4755 27.526 52.2695 26.9081 51.8576 26.4631C51.4457 26.0133 50.8799 25.7884 50.1602 25.7884C49.6677 25.7884 49.2298 25.8949 48.8462 26.108C48.4674 26.321 48.1668 26.6335 47.9442 27.0455C47.7264 27.4527 47.6175 27.9451 47.6175 28.5227ZM67.8324 24.0909V25.7955H61.8736V24.0909H67.8324ZM63.4716 21.4773H65.5952V31.7969C65.5952 32.2088 65.6567 32.5189 65.7798 32.7273C65.9029 32.9309 66.0616 33.0705 66.2557 33.1463C66.4545 33.2173 66.67 33.2528 66.902 33.2528C67.0724 33.2528 67.2216 33.241 67.3494 33.2173C67.4773 33.1937 67.5767 33.1747 67.6477 33.1605L68.0312 34.9148C67.9081 34.9621 67.733 35.0095 67.5057 35.0568C67.2784 35.1089 66.9943 35.1373 66.6534 35.142C66.0947 35.1515 65.5739 35.0521 65.0909 34.8438C64.608 34.6354 64.2173 34.3134 63.919 33.8778C63.6207 33.4422 63.4716 32.8954 63.4716 32.2372V21.4773ZM72.5394 28.5227V35H70.4158V20.4545H72.511V25.8665H72.646C72.9016 25.2794 73.2923 24.813 73.8178 24.4673C74.3434 24.1217 75.0299 23.9489 75.8775 23.9489C76.6256 23.9489 77.279 24.1027 77.8377 24.4105C78.4012 24.7183 78.8368 25.1776 79.1445 25.7884C79.457 26.3944 79.6133 27.152 79.6133 28.0611V35H77.4897V28.3168C77.4897 27.5166 77.2837 26.8963 76.8718 26.456C76.4599 26.0109 75.887 25.7884 75.1531 25.7884C74.6512 25.7884 74.2013 25.8949 73.8036 26.108C73.4106 26.321 73.1005 26.6335 72.8732 27.0455C72.6507 27.4527 72.5394 27.9451 72.5394 28.5227ZM87.1488 35.2202C86.074 35.2202 85.1483 34.9905 84.3718 34.5312C83.6 34.0672 83.0034 33.4162 82.582 32.5781C82.1654 31.7353 81.957 30.7481 81.957 29.6165C81.957 28.4991 82.1654 27.5142 82.582 26.6619C83.0034 25.8097 83.5906 25.1444 84.3434 24.6662C85.101 24.188 85.9864 23.9489 86.9996 23.9489C87.6152 23.9489 88.2118 24.0507 88.7894 24.2543C89.3671 24.4579 89.8855 24.7775 90.3448 25.2131C90.8041 25.6487 91.1663 26.2145 91.4315 26.9105C91.6966 27.6018 91.8292 28.4422 91.8292 29.4318V30.1847H83.1573V28.5938H89.7482C89.7482 28.035 89.6346 27.5402 89.4073 27.1094C89.18 26.6738 88.8604 26.3305 88.4485 26.0795C88.0413 25.8286 87.5631 25.7031 87.0138 25.7031C86.4173 25.7031 85.8964 25.8499 85.4513 26.1435C85.011 26.4323 84.6701 26.8111 84.4286 27.2798C84.1919 27.7438 84.0735 28.2481 84.0735 28.7926V30.0355C84.0735 30.7647 84.2013 31.3849 84.457 31.8963C84.7174 32.4077 85.0797 32.7983 85.5437 33.0682C86.0077 33.3333 86.5498 33.4659 87.1701 33.4659C87.5726 33.4659 87.9395 33.4091 88.271 33.2955C88.6024 33.1771 88.8888 33.0019 89.1303 32.7699C89.3718 32.5379 89.5565 32.2514 89.6843 31.9105L91.6942 32.2727C91.5333 32.8646 91.2444 33.383 90.8278 33.8281C90.4158 34.2685 89.8974 34.6117 89.2724 34.858C88.6521 35.0994 87.9442 35.2202 87.1488 35.2202ZM22.6193 48.0909V49.7955H16.4545V48.0909H22.6193ZM18.1449 59V46.8267C18.1449 46.1449 18.294 45.5791 18.5923 45.1293C18.8906 44.6747 19.286 44.3362 19.7784 44.1136C20.2708 43.8864 20.8059 43.7727 21.3835 43.7727C21.8097 43.7727 22.1742 43.8082 22.4773 43.8793C22.7803 43.9455 23.0052 44.0071 23.152 44.0639L22.6548 45.7827C22.5554 45.7543 22.4276 45.7211 22.2713 45.6832C22.1151 45.6406 21.9257 45.6193 21.7031 45.6193C21.187 45.6193 20.8177 45.7472 20.5952 46.0028C20.3774 46.2585 20.2685 46.6278 20.2685 47.1108V59H18.1449ZM27.6531 59.2415C26.9618 59.2415 26.3368 59.1136 25.7781 58.858C25.2193 58.5975 24.7766 58.2211 24.4499 57.7287C24.128 57.2363 23.967 56.6326 23.967 55.9176C23.967 55.3021 24.0853 54.7955 24.3221 54.3977C24.5588 54 24.8784 53.6851 25.2809 53.4531C25.6834 53.2211 26.1332 53.0459 26.6303 52.9276C27.1275 52.8092 27.6341 52.7192 28.1502 52.6577C28.8036 52.5819 29.3339 52.5204 29.7411 52.473C30.1483 52.4209 30.4442 52.3381 30.6289 52.2244C30.8136 52.1108 30.9059 51.9261 30.9059 51.6705V51.6207C30.9059 51.0005 30.7307 50.5199 30.3803 50.179C30.0347 49.8381 29.5186 49.6676 28.832 49.6676C28.1171 49.6676 27.5536 49.8262 27.1417 50.1435C26.7345 50.456 26.4528 50.804 26.2965 51.1875L24.3008 50.733C24.5375 50.0701 24.8832 49.535 25.3377 49.1278C25.797 48.7159 26.3249 48.4176 26.9215 48.233C27.5181 48.0436 28.1455 47.9489 28.8036 47.9489C29.2392 47.9489 29.7009 48.0009 30.1886 48.1051C30.681 48.2045 31.1403 48.3892 31.5664 48.6591C31.9973 48.929 32.35 49.3149 32.6246 49.8168C32.8993 50.3139 33.0366 50.9602 33.0366 51.7557V59H30.9627V57.5085H30.8775C30.7402 57.7831 30.5342 58.053 30.2596 58.3182C29.985 58.5833 29.6322 58.8035 29.2013 58.9787C28.7705 59.1539 28.2544 59.2415 27.6531 59.2415ZM28.1147 57.5369C28.7018 57.5369 29.2037 57.4209 29.6204 57.1889C30.0418 56.9569 30.3614 56.6539 30.5792 56.2798C30.8017 55.901 30.913 55.4962 30.913 55.0653V53.6591C30.8372 53.7348 30.6905 53.8059 30.4727 53.8722C30.2596 53.9337 30.0157 53.9882 29.7411 54.0355C29.4665 54.0781 29.199 54.1184 28.9386 54.1562C28.6781 54.1894 28.4603 54.2178 28.2852 54.2415C27.8732 54.2936 27.4968 54.3812 27.1559 54.5043C26.8197 54.6274 26.5498 54.8049 26.3462 55.0369C26.1474 55.2642 26.0479 55.5672 26.0479 55.946C26.0479 56.4716 26.2421 56.8693 26.6303 57.1392C27.0186 57.4044 27.5134 57.5369 28.1147 57.5369ZM35.8651 59V48.0909H37.9034V49.8665H38.0384C38.2656 49.2652 38.6373 48.7964 39.1534 48.4602C39.6695 48.1193 40.2874 47.9489 41.0071 47.9489C41.7363 47.9489 42.3471 48.1193 42.8395 48.4602C43.3366 48.8011 43.7036 49.2699 43.9403 49.8665H44.054C44.3144 49.2841 44.7287 48.8201 45.2969 48.4744C45.8651 48.1241 46.5421 47.9489 47.3281 47.9489C48.3177 47.9489 49.125 48.259 49.75 48.8793C50.3797 49.4995 50.6946 50.4347 50.6946 51.6847V59H48.571V51.8835C48.571 51.1449 48.3698 50.6098 47.9673 50.2784C47.5649 49.947 47.0843 49.7812 46.5256 49.7812C45.8343 49.7812 45.2969 49.9943 44.9134 50.4205C44.5298 50.8419 44.3381 51.384 44.3381 52.0469V59H42.2216V51.7486C42.2216 51.1567 42.0369 50.6809 41.6676 50.321C41.2983 49.9612 40.8177 49.7812 40.2259 49.7812C39.8234 49.7812 39.4517 49.8878 39.1108 50.1009C38.7746 50.3092 38.5024 50.6004 38.294 50.9744C38.0904 51.3485 37.9886 51.7817 37.9886 52.2741V59H35.8651ZM53.5408 59V48.0909H55.6644V59H53.5408ZM54.6133 46.4077C54.244 46.4077 53.9267 46.2846 53.6616 46.0384C53.4012 45.7874 53.271 45.4891 53.271 45.1435C53.271 44.7931 53.4012 44.4948 53.6616 44.2486C53.9267 43.9976 54.244 43.8722 54.6133 43.8722C54.9826 43.8722 55.2975 43.9976 55.5579 44.2486C55.823 44.4948 55.9556 44.7931 55.9556 45.1435C55.9556 45.4891 55.823 45.7874 55.5579 46.0384C55.2975 46.2846 54.9826 46.4077 54.6133 46.4077ZM60.6449 44.4545V59H58.5213V44.4545H60.6449ZM64.8441 63.0909C64.5269 63.0909 64.238 63.0649 63.9776 63.0128C63.7172 62.9654 63.5231 62.9134 63.3952 62.8565L63.9066 61.1165C64.2949 61.2206 64.6405 61.2656 64.9435 61.2514C65.2466 61.2372 65.5141 61.1236 65.7461 60.9105C65.9828 60.6974 66.1912 60.3494 66.3711 59.8665L66.6339 59.142L62.6424 48.0909H64.9151L67.6779 56.5568H67.7915L70.5543 48.0909H72.8342L68.3384 60.456C68.1301 61.0241 67.8649 61.5047 67.543 61.8977C67.221 62.2955 66.8375 62.5938 66.3924 62.7926C65.9473 62.9915 65.4312 63.0909 64.8441 63.0909ZM75.5455 59.1349C75.1572 59.1349 74.8234 58.9976 74.544 58.723C74.2647 58.4437 74.125 58.1075 74.125 57.7145C74.125 57.3262 74.2647 56.9948 74.544 56.7202C74.8234 56.4408 75.1572 56.3011 75.5455 56.3011C75.9337 56.3011 76.2675 56.4408 76.5469 56.7202C76.8262 56.9948 76.9659 57.3262 76.9659 57.7145C76.9659 57.9749 76.8996 58.214 76.767 58.4318C76.6392 58.6449 76.4688 58.8153 76.2557 58.9432C76.0426 59.071 75.8059 59.1349 75.5455 59.1349Z" fill="white"/>
<path d="M16 102.5C16 91.7304 24.7304 83 35.5 83H85.5C96.2696 83 105 91.7304 105 102.5C105 113.27 96.2696 122 85.5 122H35.5C24.7304 122 16 113.27 16 102.5Z" fill="#1FCEB5"/>
<path d="M42 107V106C42 105.47 41.7893 104.961 41.4142 104.586C41.0391 104.211 40.5304 104 40 104H36C35.4696 104 34.9609 104.211 34.5858 104.586C34.2107 104.961 34 105.47 34 106V107M40 100C40 101.105 39.1046 102 38 102C36.8954 102 36 101.105 36 100C36 98.8954 36.8954 98 38 98C39.1046 98 40 98.8954 40 100Z" stroke="black" stroke-width="1.6" stroke-linecap="round" stroke-linejoin="round"/>
<path d="M57.076 97.8182H58.6072V105.037C58.6072 105.69 58.478 106.248 58.2195 106.712C57.9643 107.176 57.6046 107.531 57.1406 107.776C56.6766 108.018 56.133 108.139 55.5099 108.139C54.9366 108.139 54.4212 108.035 53.9638 107.826C53.5097 107.617 53.1501 107.314 52.8849 106.916C52.6231 106.515 52.4922 106.028 52.4922 105.455H54.0185C54.0185 105.736 54.0831 105.98 54.2124 106.185C54.3449 106.391 54.5256 106.552 54.7543 106.668C54.9863 106.78 55.2514 106.837 55.5497 106.837C55.8745 106.837 56.1496 106.769 56.375 106.633C56.6037 106.494 56.7777 106.29 56.897 106.021C57.0163 105.753 57.076 105.425 57.076 105.037V97.8182ZM63.9405 108.154C63.2246 108.154 62.5998 107.99 62.0662 107.662C61.5326 107.334 61.1183 106.875 60.8233 106.285C60.5283 105.695 60.3809 105.005 60.3809 104.217C60.3809 103.424 60.5283 102.732 60.8233 102.138C61.1183 101.545 61.5326 101.085 62.0662 100.756C62.5998 100.428 63.2246 100.264 63.9405 100.264C64.6564 100.264 65.2812 100.428 65.8148 100.756C66.3484 101.085 66.7627 101.545 67.0577 102.138C67.3527 102.732 67.5002 103.424 67.5002 104.217C67.5002 105.005 67.3527 105.695 67.0577 106.285C66.7627 106.875 66.3484 107.334 65.8148 107.662C65.2812 107.99 64.6564 108.154 63.9405 108.154ZM63.9455 106.906C64.4095 106.906 64.794 106.784 65.0989 106.538C65.4038 106.293 65.6292 105.967 65.775 105.559C65.9242 105.151 65.9988 104.702 65.9988 104.212C65.9988 103.724 65.9242 103.277 65.775 102.869C65.6292 102.458 65.4038 102.129 65.0989 101.88C64.794 101.631 64.4095 101.507 63.9455 101.507C63.4782 101.507 63.0904 101.631 62.7821 101.88C62.4772 102.129 62.2502 102.458 62.101 102.869C61.9552 103.277 61.8823 103.724 61.8823 104.212C61.8823 104.702 61.9552 105.151 62.101 105.559C62.2502 105.967 62.4772 106.293 62.7821 106.538C63.0904 106.784 63.4782 106.906 63.9455 106.906ZM69.1594 108V100.364H70.646V108H69.1594ZM69.9102 99.1854C69.6516 99.1854 69.4296 99.0992 69.244 98.9268C69.0617 98.7512 68.9705 98.5424 68.9705 98.3004C68.9705 98.0552 69.0617 97.8464 69.244 97.674C69.4296 97.4983 69.6516 97.4105 69.9102 97.4105C70.1687 97.4105 70.3891 97.4983 70.5714 97.674C70.757 97.8464 70.8498 98.0552 70.8498 98.3004C70.8498 98.5424 70.757 98.7512 70.5714 98.9268C70.3891 99.0992 70.1687 99.1854 69.9102 99.1854ZM74.1323 103.466V108H72.6458V100.364H74.0726V101.607H74.1671C74.3427 101.202 74.6178 100.877 74.9924 100.632C75.3702 100.387 75.8458 100.264 76.4192 100.264C76.9396 100.264 77.3953 100.374 77.7864 100.592C78.1775 100.808 78.4808 101.129 78.6962 101.557C78.9116 101.984 79.0194 102.513 79.0194 103.143V108H77.5328V103.322C77.5328 102.768 77.3887 102.336 77.1003 102.024C76.812 101.709 76.4159 101.552 75.9121 101.552C75.5674 101.552 75.2608 101.626 74.9924 101.776C74.7272 101.925 74.5167 102.143 74.361 102.432C74.2085 102.717 74.1323 103.062 74.1323 103.466Z" fill="black"/>
<g clip-path="url(#clip0_2183_7003)">
<mask id="path-6-inside-1_2183_7003" fill="white">
<path d="M195 24C195 19.5817 198.582 16 203 16H271C275.418 16 279 19.5817 279 24V93C279 97.4183 275.418 101 271 101H203C198.582 101 195 97.4183 195 93V24Z"/>
</mask>
<path d="M195 24C195 19.5817 198.582 16 203 16H271C275.418 16 279 19.5817 279 24V93C279 97.4183 275.418 101 271 101H203C198.582 101 195 97.4183 195 93V24Z" fill="#FAF9F5"/>
<path d="M196.134 58.4123H236.948V99.6961L196.134 58.4123Z" fill="#FC4C02"/>
<path d="M196.134 17.5596L236.948 58.4123M277.762 99.6961L236.948 58.4123M236.948 58.4123H196.134L236.948 99.6961V58.4123Z" stroke="black" stroke-width="1.5"/>
</g>
<path d="M203 17.5H271V14.5H203V17.5ZM277.5 24V93H280.5V24H277.5ZM271 99.5H203V102.5H271V99.5ZM196.5 93V24H193.5V93H196.5ZM203 99.5C199.41 99.5 196.5 96.5899 196.5 93H193.5C193.5 98.2467 197.753 102.5 203 102.5V99.5ZM277.5 93C277.5 96.5899 274.59 99.5 271 99.5V102.5C276.247 102.5 280.5 98.2467 280.5 93H277.5ZM271 17.5C274.59 17.5 277.5 20.4101 277.5 24H280.5C280.5 18.7533 276.247 14.5 271 14.5V17.5ZM203 14.5C197.753 14.5 193.5 18.7533 193.5 24H196.5C196.5 20.4101 199.41 17.5 203 17.5V14.5Z" fill="black" mask="url(#path-6-inside-1_2183_7003)"/>
<defs>
<clipPath id="clip0_2183_7003">
<path d="M195 24C195 19.5817 198.582 16 203 16H271C275.418 16 279 19.5817 279 24V93C279 97.4183 275.418 101 271 101H203C198.582 101 195 97.4183 195 93V24Z" fill="white"/>
</clipPath>
</defs>
</svg>
