<svg width="394" height="194" viewBox="0 0 394 194" fill="none" xmlns="http://www.w3.org/2000/svg">
<path d="M0 20C0 8.95431 8.95431 0 20 0H374C385.046 0 394 8.9543 394 20V174C394 185.046 385.046 194 374 194H20C8.9543 194 0 185.046 0 174V20Z" fill="#FC4C02"/>
<path d="M35.6023 31.7273H39.1023V48.2273C39.1023 49.7197 38.8068 50.9962 38.2159 52.0568C37.6326 53.1174 36.8106 53.928 35.75 54.4886C34.6894 55.0417 33.447 55.3182 32.0227 55.3182C30.7121 55.3182 29.5341 55.0795 28.4886 54.6023C27.4508 54.125 26.6288 53.4318 26.0227 52.5227C25.4242 51.6061 25.125 50.4924 25.125 49.1818H28.6136C28.6136 49.8258 28.7614 50.3826 29.0568 50.8523C29.3598 51.322 29.7727 51.6894 30.2955 51.9545C30.8258 52.2121 31.4318 52.3409 32.1136 52.3409C32.8561 52.3409 33.4848 52.1856 34 51.875C34.5227 51.5568 34.9205 51.0909 35.1932 50.4773C35.4659 49.8636 35.6023 49.1136 35.6023 48.2273V31.7273ZM51.2926 55.3523C49.6563 55.3523 48.2282 54.9773 47.0085 54.2273C45.7888 53.4773 44.8419 52.428 44.1676 51.0795C43.4934 49.7311 43.1562 48.1553 43.1562 46.3523C43.1562 44.5417 43.4934 42.9583 44.1676 41.6023C44.8419 40.2462 45.7888 39.1932 47.0085 38.4432C48.2282 37.6932 49.6563 37.3182 51.2926 37.3182C52.929 37.3182 54.357 37.6932 55.5767 38.4432C56.7964 39.1932 57.7434 40.2462 58.4176 41.6023C59.0919 42.9583 59.429 44.5417 59.429 46.3523C59.429 48.1553 59.0919 49.7311 58.4176 51.0795C57.7434 52.428 56.7964 53.4773 55.5767 54.2273C54.357 54.9773 52.929 55.3523 51.2926 55.3523ZM51.304 52.5C52.3646 52.5 53.2434 52.2197 53.9403 51.6591C54.6373 51.0985 55.1525 50.3523 55.4858 49.4205C55.8267 48.4886 55.9972 47.4621 55.9972 46.3409C55.9972 45.2273 55.8267 44.2045 55.4858 43.2727C55.1525 42.3333 54.6373 41.5795 53.9403 41.0114C53.2434 40.4432 52.3646 40.1591 51.304 40.1591C50.2358 40.1591 49.3494 40.4432 48.6449 41.0114C47.9479 41.5795 47.429 42.3333 47.0881 43.2727C46.7547 44.2045 46.5881 45.2273 46.5881 46.3409C46.5881 47.4621 46.7547 48.4886 47.0881 49.4205C47.429 50.3523 47.9479 51.0985 48.6449 51.6591C49.3494 52.2197 50.2358 52.5 51.304 52.5ZM63.2216 55V37.5455H66.6193V55H63.2216ZM64.9375 34.8523C64.3466 34.8523 63.839 34.6553 63.4148 34.2614C62.9981 33.8598 62.7898 33.3826 62.7898 32.8295C62.7898 32.2689 62.9981 31.7917 63.4148 31.3977C63.839 30.9962 64.3466 30.7955 64.9375 30.7955C65.5284 30.7955 66.0322 30.9962 66.4489 31.3977C66.8731 31.7917 67.0852 32.2689 67.0852 32.8295C67.0852 33.3826 66.8731 33.8598 66.4489 34.2614C66.0322 34.6553 65.5284 34.8523 64.9375 34.8523ZM74.5881 44.6364V55H71.1903V37.5455H74.4517V40.3864H74.6676C75.0691 39.4621 75.6979 38.7197 76.554 38.1591C77.4176 37.5985 78.5047 37.3182 79.8153 37.3182C81.0047 37.3182 82.0464 37.5682 82.9403 38.0682C83.8343 38.5606 84.5275 39.2955 85.0199 40.2727C85.5123 41.25 85.7585 42.4583 85.7585 43.8977V55H82.3608V44.3068C82.3608 43.0417 82.0313 42.053 81.3722 41.3409C80.7131 40.6212 79.8078 40.2614 78.6562 40.2614C77.8684 40.2614 77.1676 40.4318 76.554 40.7727C75.9479 41.1136 75.4669 41.6136 75.1108 42.2727C74.7623 42.9242 74.5881 43.7121 74.5881 44.6364ZM106.932 37.5455V40.2727H97.3977V37.5455H106.932ZM99.9545 33.3636H103.352V49.875C103.352 50.5341 103.451 51.0303 103.648 51.3636C103.845 51.6894 104.098 51.9129 104.409 52.0341C104.727 52.1477 105.072 52.2045 105.443 52.2045C105.716 52.2045 105.955 52.1856 106.159 52.1477C106.364 52.1098 106.523 52.0795 106.636 52.0568L107.25 54.8636C107.053 54.9394 106.773 55.0152 106.409 55.0909C106.045 55.1742 105.591 55.2197 105.045 55.2273C104.152 55.2424 103.318 55.0833 102.545 54.75C101.773 54.4167 101.148 53.9015 100.67 53.2045C100.193 52.5076 99.9545 51.6326 99.9545 50.5795V33.3636ZM114.463 44.6364V55H111.065V31.7273H114.418V40.3864H114.634C115.043 39.447 115.668 38.7008 116.509 38.1477C117.349 37.5947 118.448 37.3182 119.804 37.3182C121.001 37.3182 122.046 37.5644 122.94 38.0568C123.842 38.5492 124.539 39.2841 125.031 40.2614C125.531 41.2311 125.781 42.4432 125.781 43.8977V55H122.384V44.3068C122.384 43.0265 122.054 42.0341 121.395 41.3295C120.736 40.6174 119.819 40.2614 118.645 40.2614C117.842 40.2614 117.122 40.4318 116.486 40.7727C115.857 41.1136 115.361 41.6136 114.997 42.2727C114.641 42.9242 114.463 43.7121 114.463 44.6364ZM137.838 55.3523C136.118 55.3523 134.637 54.9848 133.395 54.25C132.16 53.5076 131.205 52.4659 130.531 51.125C129.865 49.7765 129.531 48.197 129.531 46.3864C129.531 44.5985 129.865 43.0227 130.531 41.6591C131.205 40.2955 132.145 39.2311 133.349 38.4659C134.562 37.7008 135.978 37.3182 137.599 37.3182C138.584 37.3182 139.539 37.4811 140.463 37.8068C141.387 38.1326 142.217 38.6439 142.952 39.3409C143.687 40.0379 144.266 40.9432 144.69 42.0568C145.115 43.1629 145.327 44.5076 145.327 46.0909V47.2955H131.452V44.75H141.997C141.997 43.8561 141.815 43.0644 141.452 42.375C141.088 41.678 140.577 41.1288 139.918 40.7273C139.266 40.3258 138.501 40.125 137.622 40.125C136.668 40.125 135.834 40.3598 135.122 40.8295C134.418 41.2917 133.872 41.8977 133.486 42.6477C133.107 43.3902 132.918 44.197 132.918 45.0682V47.0568C132.918 48.2235 133.122 49.2159 133.531 50.0341C133.948 50.8523 134.527 51.4773 135.27 51.9091C136.012 52.3333 136.88 52.5455 137.872 52.5455C138.516 52.5455 139.103 52.4545 139.634 52.2727C140.164 52.0833 140.622 51.803 141.009 51.4318C141.395 51.0606 141.69 50.6023 141.895 50.0568L145.111 50.6364C144.853 51.5833 144.391 52.4129 143.724 53.125C143.065 53.8295 142.236 54.3788 141.236 54.7727C140.243 55.1591 139.111 55.3523 137.838 55.3523ZM34.5909 75.5455V78.2727H24.7273V75.5455H34.5909ZM27.4318 93V73.5227C27.4318 72.4318 27.6705 71.5265 28.1477 70.8068C28.625 70.0795 29.2576 69.5379 30.0455 69.1818C30.8333 68.8182 31.6894 68.6364 32.6136 68.6364C33.2955 68.6364 33.8788 68.6932 34.3636 68.8068C34.8485 68.9129 35.2083 69.0114 35.4432 69.1023L34.6477 71.8523C34.4886 71.8068 34.2841 71.7538 34.0341 71.6932C33.7841 71.625 33.4811 71.5909 33.125 71.5909C32.2992 71.5909 31.7083 71.7955 31.3523 72.2045C31.0038 72.6136 30.8295 73.2045 30.8295 73.9773V93H27.4318ZM42.6449 93.3864C41.5388 93.3864 40.5388 93.1818 39.6449 92.7727C38.7509 92.3561 38.0426 91.7538 37.5199 90.9659C37.0047 90.178 36.7472 89.2121 36.7472 88.0682C36.7472 87.0833 36.9366 86.2727 37.3153 85.6364C37.6941 85 38.2055 84.4962 38.8494 84.125C39.4934 83.7538 40.2131 83.4735 41.0085 83.2841C41.804 83.0947 42.6146 82.9508 43.4403 82.8523C44.4858 82.7311 45.3343 82.6326 45.9858 82.5568C46.6373 82.4735 47.1108 82.3409 47.4062 82.1591C47.7017 81.9773 47.8494 81.6818 47.8494 81.2727V81.1932C47.8494 80.2008 47.5691 79.4318 47.0085 78.8864C46.4555 78.3409 45.6297 78.0682 44.5312 78.0682C43.3873 78.0682 42.4858 78.322 41.8267 78.8295C41.1752 79.3295 40.7244 79.8864 40.4744 80.5L37.2812 79.7727C37.66 78.7121 38.2131 77.8561 38.9403 77.2045C39.6752 76.5455 40.5199 76.0682 41.4744 75.7727C42.429 75.4697 43.4328 75.3182 44.4858 75.3182C45.1828 75.3182 45.9214 75.4015 46.7017 75.5682C47.4896 75.7273 48.2244 76.0227 48.9062 76.4545C49.5956 76.8864 50.16 77.5038 50.5994 78.3068C51.0388 79.1023 51.2585 80.1364 51.2585 81.4091V93H47.9403V90.6136H47.804C47.5843 91.053 47.2547 91.4848 46.8153 91.9091C46.3759 92.3333 45.8116 92.6856 45.1222 92.9659C44.4328 93.2462 43.607 93.3864 42.6449 93.3864ZM43.3835 90.6591C44.3229 90.6591 45.1259 90.4735 45.7926 90.1023C46.4669 89.7311 46.9782 89.2462 47.3267 88.6477C47.6828 88.0417 47.8608 87.3939 47.8608 86.7045V84.4545C47.7396 84.5758 47.5047 84.6894 47.1562 84.7955C46.8153 84.8939 46.4252 84.9811 45.9858 85.0568C45.5464 85.125 45.1184 85.1894 44.7017 85.25C44.285 85.303 43.9366 85.3485 43.6562 85.3864C42.9972 85.4697 42.3949 85.6098 41.8494 85.8068C41.3116 86.0038 40.8797 86.2879 40.554 86.6591C40.2358 87.0227 40.0767 87.5076 40.0767 88.1136C40.0767 88.9545 40.3873 89.5909 41.0085 90.0227C41.6297 90.447 42.4214 90.6591 43.3835 90.6591ZM55.7841 93V75.5455H59.0455V78.3864H59.2614C59.625 77.4242 60.2197 76.6742 61.0455 76.1364C61.8712 75.5909 62.8598 75.3182 64.0114 75.3182C65.178 75.3182 66.1553 75.5909 66.9432 76.1364C67.7386 76.6818 68.3258 77.4318 68.7045 78.3864H68.8864C69.303 77.4545 69.9659 76.7121 70.875 76.1591C71.7841 75.5985 72.8674 75.3182 74.125 75.3182C75.7083 75.3182 77 75.8144 78 76.8068C79.0076 77.7992 79.5114 79.2955 79.5114 81.2955V93H76.1136V81.6136C76.1136 80.4318 75.7917 79.5758 75.1477 79.0455C74.5038 78.5152 73.7348 78.25 72.8409 78.25C71.7348 78.25 70.875 78.5909 70.2614 79.2727C69.6477 79.947 69.3409 80.8144 69.3409 81.875V93H65.9545V81.3977C65.9545 80.4508 65.6591 79.6894 65.0682 79.1136C64.4773 78.5379 63.7083 78.25 62.7614 78.25C62.1174 78.25 61.5227 78.4205 60.9773 78.7614C60.4394 79.0947 60.0038 79.5606 59.6705 80.1591C59.3447 80.7576 59.1818 81.4508 59.1818 82.2386V93H55.7841ZM84.0653 93V75.5455H87.4631V93H84.0653ZM85.7812 72.8523C85.1903 72.8523 84.6828 72.6553 84.2585 72.2614C83.8419 71.8598 83.6335 71.3826 83.6335 70.8295C83.6335 70.2689 83.8419 69.7917 84.2585 69.3977C84.6828 68.9962 85.1903 68.7955 85.7812 68.7955C86.3722 68.7955 86.8759 68.9962 87.2926 69.3977C87.7169 69.7917 87.929 70.2689 87.929 70.8295C87.929 71.3826 87.7169 71.8598 87.2926 72.2614C86.8759 72.6553 86.3722 72.8523 85.7812 72.8523ZM95.4318 69.7273V93H92.0341V69.7273H95.4318ZM102.151 99.5455C101.643 99.5455 101.181 99.5038 100.764 99.4205C100.348 99.3447 100.037 99.2614 99.8324 99.1705L100.651 96.3864C101.272 96.553 101.825 96.625 102.31 96.6023C102.795 96.5795 103.223 96.3977 103.594 96.0568C103.973 95.7159 104.306 95.1591 104.594 94.3864L105.014 93.2273L98.6278 75.5455H102.264L106.685 89.0909H106.866L111.287 75.5455H114.935L107.741 95.3295C107.408 96.2386 106.984 97.0076 106.469 97.6364C105.954 98.2727 105.34 98.75 104.628 99.0682C103.916 99.3864 103.09 99.5455 102.151 99.5455ZM119.273 93.2159C118.652 93.2159 118.117 92.9962 117.67 92.5568C117.223 92.1098 117 91.572 117 90.9432C117 90.322 117.223 89.7917 117.67 89.3523C118.117 88.9053 118.652 88.6818 119.273 88.6818C119.894 88.6818 120.428 88.9053 120.875 89.3523C121.322 89.7917 121.545 90.322 121.545 90.9432C121.545 91.3598 121.439 91.7424 121.227 92.0909C121.023 92.4318 120.75 92.7045 120.409 92.9091C120.068 93.1136 119.689 93.2159 119.273 93.2159Z" fill="white"/>
<path d="M24 150.5C24 139.73 32.7304 131 43.5 131H93.5C104.27 131 113 139.73 113 150.5C113 161.27 104.27 170 93.5 170H43.5C32.7304 170 24 161.27 24 150.5Z" fill="#1FCEB5"/>
<path d="M50 155V154C50 153.47 49.7893 152.961 49.4142 152.586C49.0391 152.211 48.5304 152 48 152H44C43.4696 152 42.9609 152.211 42.5858 152.586C42.2107 152.961 42 153.47 42 154V155M48 148C48 149.105 47.1046 150 46 150C44.8954 150 44 149.105 44 148C44 146.895 44.8954 146 46 146C47.1046 146 48 146.895 48 148Z" stroke="black" stroke-width="1.6" stroke-linecap="round" stroke-linejoin="round"/>
<path d="M65.076 145.818H66.6072V153.037C66.6072 153.69 66.478 154.248 66.2195 154.712C65.9643 155.176 65.6046 155.531 65.1406 155.776C64.6766 156.018 64.133 156.139 63.5099 156.139C62.9366 156.139 62.4212 156.035 61.9638 155.826C61.5097 155.617 61.1501 155.314 60.8849 154.916C60.6231 154.515 60.4922 154.028 60.4922 153.455H62.0185C62.0185 153.736 62.0831 153.98 62.2124 154.185C62.3449 154.391 62.5256 154.552 62.7543 154.668C62.9863 154.78 63.2514 154.837 63.5497 154.837C63.8745 154.837 64.1496 154.769 64.375 154.633C64.6037 154.494 64.7777 154.29 64.897 154.021C65.0163 153.753 65.076 153.425 65.076 153.037V145.818ZM71.9405 156.154C71.2246 156.154 70.5998 155.99 70.0662 155.662C69.5326 155.334 69.1183 154.875 68.8233 154.285C68.5283 153.695 68.3809 153.005 68.3809 152.217C68.3809 151.424 68.5283 150.732 68.8233 150.138C69.1183 149.545 69.5326 149.085 70.0662 148.756C70.5998 148.428 71.2246 148.264 71.9405 148.264C72.6564 148.264 73.2812 148.428 73.8148 148.756C74.3484 149.085 74.7627 149.545 75.0577 150.138C75.3527 150.732 75.5002 151.424 75.5002 152.217C75.5002 153.005 75.3527 153.695 75.0577 154.285C74.7627 154.875 74.3484 155.334 73.8148 155.662C73.2812 155.99 72.6564 156.154 71.9405 156.154ZM71.9455 154.906C72.4095 154.906 72.794 154.784 73.0989 154.538C73.4038 154.293 73.6292 153.967 73.775 153.559C73.9242 153.151 73.9988 152.702 73.9988 152.212C73.9988 151.724 73.9242 151.277 73.775 150.869C73.6292 150.458 73.4038 150.129 73.0989 149.88C72.794 149.631 72.4095 149.507 71.9455 149.507C71.4782 149.507 71.0904 149.631 70.7821 149.88C70.4772 150.129 70.2502 150.458 70.101 150.869C69.9552 151.277 69.8823 151.724 69.8823 152.212C69.8823 152.702 69.9552 153.151 70.101 153.559C70.2502 153.967 70.4772 154.293 70.7821 154.538C71.0904 154.784 71.4782 154.906 71.9455 154.906ZM77.1594 156V148.364H78.646V156H77.1594ZM77.9102 147.185C77.6516 147.185 77.4296 147.099 77.244 146.927C77.0617 146.751 76.9705 146.542 76.9705 146.3C76.9705 146.055 77.0617 145.846 77.244 145.674C77.4296 145.498 77.6516 145.411 77.9102 145.411C78.1687 145.411 78.3891 145.498 78.5714 145.674C78.757 145.846 78.8498 146.055 78.8498 146.3C78.8498 146.542 78.757 146.751 78.5714 146.927C78.3891 147.099 78.1687 147.185 77.9102 147.185ZM82.1323 151.466V156H80.6458V148.364H82.0726V149.607H82.1671C82.3427 149.202 82.6178 148.877 82.9924 148.632C83.3702 148.387 83.8458 148.264 84.4192 148.264C84.9396 148.264 85.3953 148.374 85.7864 148.592C86.1775 148.808 86.4808 149.129 86.6962 149.557C86.9116 149.984 87.0194 150.513 87.0194 151.143V156H85.5328V151.322C85.5328 150.768 85.3887 150.336 85.1003 150.024C84.812 149.709 84.4159 149.552 83.9121 149.552C83.5674 149.552 83.2608 149.626 82.9924 149.776C82.7272 149.925 82.5167 150.143 82.361 150.432C82.2085 150.717 82.1323 151.062 82.1323 151.466Z" fill="black"/>
<g clip-path="url(#clip0_2183_4935)">
<mask id="path-6-inside-1_2183_4935" fill="white">
<path d="M225.587 32C225.587 27.5817 229.169 24 233.587 24H362C366.418 24 370 27.5817 370 32V162C370 166.418 366.418 170 362 170H233.587C229.169 170 225.587 166.418 225.587 162V32Z"/>
</mask>
<path d="M225.587 32C225.587 27.5817 229.169 24 233.587 24H362C366.418 24 370 27.5817 370 32V162C370 166.418 366.418 170 362 170H233.587C229.169 170 225.587 166.418 225.587 162V32Z" fill="#FAF9F5"/>
<path d="M227.536 96.8495H297.704V167.761L227.536 96.8495Z" fill="#FC4C02"/>
<path d="M227.536 26.679L297.704 96.8495M367.871 167.761L297.704 96.8495M297.704 96.8495H227.536L297.704 167.761V96.8495Z" stroke="black" stroke-width="1.5"/>
</g>
<path d="M233.587 25.5H362V22.5H233.587V25.5ZM368.5 32V162H371.5V32H368.5ZM362 168.5H233.587V171.5H362V168.5ZM227.087 162V32H224.087V162H227.087ZM233.587 168.5C229.997 168.5 227.087 165.59 227.087 162H224.087C224.087 167.247 228.34 171.5 233.587 171.5V168.5ZM368.5 162C368.5 165.59 365.59 168.5 362 168.5V171.5C367.247 171.5 371.5 167.247 371.5 162H368.5ZM362 25.5C365.59 25.5 368.5 28.4101 368.5 32H371.5C371.5 26.7533 367.247 22.5 362 22.5V25.5ZM233.587 22.5C228.34 22.5 224.087 26.7533 224.087 32H227.087C227.087 28.4102 229.997 25.5 233.587 25.5V22.5Z" fill="black" mask="url(#path-6-inside-1_2183_4935)"/>
<defs>
<clipPath id="clip0_2183_4935">
<path d="M225.587 32C225.587 27.5817 229.169 24 233.587 24H362C366.418 24 370 27.5817 370 32V162C370 166.418 366.418 170 362 170H233.587C229.169 170 225.587 166.418 225.587 162V32Z" fill="white"/>
</clipPath>
</defs>
</svg>
